<svg xmlns="http://www.w3.org/2000/svg" width="1880" height="1080" viewBox="0 0 1880 1080"><defs><marker id="arrow" markerWidth="10" markerHeight="10" refX="8" refY="3" orient="auto" markerUnits="strokeWidth"><path d="M0,0 L0,6 L9,3 z" fill="#495057"/></marker></defs><rect width="100%" height="100%" fill="#ffffff"/><text font-family="Consolas, Microsoft YaHei, sans-serif" font-size="28" fill="#212529" text-anchor="middle"><tspan x="940.0" y="53.0">MetadataManager 与 ShardMetadata 对象关系</tspan></text><rect x="60" y="300" width="360" height="270" rx="10" fill="#e7f5ff" stroke="#1971c2" stroke-width="2"/><text font-family="Consolas, Microsoft YaHei, sans-serif" font-size="18" fill="#1971c2" text-anchor="middle"><tspan x="240.0" y="441.8"></tspan></text><text font-family="Consolas, Microsoft YaHei, sans-serif" font-size="23" fill="#1971c2" text-anchor="middle"><tspan x="240.0" y="350.8">MetadataManager</tspan></text><line x1="90" y1="380" x2="390" y2="380" stroke="#1971c2" stroke-width="2"/><text font-family="Consolas, Microsoft YaHei, sans-serif" font-size="16" fill="#495057" text-anchor="start"><tspan x="100.0" y="436.5">shards_[1024]</tspan><tspan x="100.0" y="456.5">bufferManager_</tspan><tspan x="100.0" y="476.5">defaultEvictRatio_</tspan><tspan x="100.0" y="496.5"></tspan><tspan x="100.0" y="516.5">ShardIdx(key) → ShardMetadata[i]</tspan></text><rect x="500" y="90" width="800" height="710" rx="10" fill="none" stroke="#2b8a3e" stroke-width="2" stroke-dasharray="9 7"/><text font-family="Consolas, Microsoft YaHei, sans-serif" font-size="18" fill="#2b8a3e" text-anchor="middle"><tspan x="900.0" y="451.8"></tspan></text><text font-family="Consolas, Microsoft YaHei, sans-serif" font-size="19" fill="#2b8a3e" text-anchor="start"><tspan x="530.0" y="130.1">shards_ : array&lt;unique_ptr&lt;ShardMetadata&gt;, 1024&gt;</tspan></text><rect x="550" y="165" width="170" height="70" rx="10" fill="#f1f3f5" stroke="#495057" stroke-width="2"/><text font-family="Consolas, Microsoft YaHei, sans-serif" font-size="15" fill="#495057" text-anchor="middle"><tspan x="635.0" y="205.6">ShardMetadata[0]</tspan></text><rect x="770" y="155" width="190" height="90" rx="10" fill="#ebfbee" stroke="#2b8a3e" stroke-width="2"/><text font-family="Consolas, Microsoft YaHei, sans-serif" font-size="17" fill="#2b8a3e" text-anchor="middle"><tspan x="865.0" y="206.4">ShardMetadata[i]</tspan></text><text font-family="Consolas, Microsoft YaHei, sans-serif" font-size="24" fill="#868e96" text-anchor="middle"><tspan x="1020.0" y="209.0">···</tspan></text><rect x="1080" y="165" width="180" height="70" rx="10" fill="#f1f3f5" stroke="#495057" stroke-width="2"/><text font-family="Consolas, Microsoft YaHei, sans-serif" font-size="14" fill="#495057" text-anchor="middle"><tspan x="1170.0" y="205.2">ShardMetadata[1023]</tspan></text><line x1="420" y1="420" x2="500" y2="420" stroke="#495057" stroke-width="2" marker-end="url(#arrow)"/><line x1="865" y1="245" x2="865" y2="300" stroke="#495057" stroke-width="2" marker-end="url(#arrow)"/><text font-family="Consolas, Microsoft YaHei, sans-serif" font-size="14" fill="#495057" text-anchor="middle"><tspan x="865.0" y="257.8">selected</tspan></text><rect x="550" y="300" width="700" height="450" rx="10" fill="none" stroke="#2b8a3e" stroke-width="2" stroke-dasharray="9 7"/><text font-family="Consolas, Microsoft YaHei, sans-serif" font-size="18" fill="#2b8a3e" text-anchor="middle"><tspan x="900.0" y="531.8"></tspan></text><text font-family="Consolas, Microsoft YaHei, sans-serif" font-size="21" fill="#2b8a3e" text-anchor="start"><tspan x="580.0" y="341.2">ShardMetadata[i]</tspan></text><rect x="590" y="375" width="620" height="55" rx="10" fill="#f1f3f5" stroke="#495057" stroke-width="2"/><text font-family="Consolas, Microsoft YaHei, sans-serif" font-size="15" fill="#495057" text-anchor="middle"><tspan x="900.0" y="408.1">mtx_ : RwLock    ·    leaseTime_ : milliseconds</tspan></text><rect x="590" y="470" width="620" height="115" rx="10" fill="#ebfbee" stroke="#2b8a3e" stroke-width="2"/><text font-family="Consolas, Microsoft YaHei, sans-serif" font-size="16" fill="#2b8a3e" text-anchor="middle"><tspan x="900.0" y="523.5">metadata_ : unordered_map&lt;BlockId, EntryPtr&gt;</tspan><tspan x="900.0" y="543.5">key₀ → EntryPtr    keyᵢ → EntryPtr    keyₙ → EntryPtr</tspan></text><rect x="590" y="635" width="285" height="80" rx="10" fill="#f3f0ff" stroke="#7048e8" stroke-width="2"/><text font-family="Consolas, Microsoft YaHei, sans-serif" font-size="14" fill="#7048e8" text-anchor="middle"><tspan x="732.5" y="671.5">periodicEvictor_</tspan><tspan x="732.5" y="689.0">unique_ptr&lt;EvictionPolicy&gt;</tspan></text><rect x="925" y="635" width="285" height="80" rx="10" fill="#f3f0ff" stroke="#7048e8" stroke-width="2"/><text font-family="Consolas, Microsoft YaHei, sans-serif" font-size="14" fill="#7048e8" text-anchor="middle"><tspan x="1067.5" y="671.5">deepEvictor_</tspan><tspan x="1067.5" y="689.0">unique_ptr&lt;EvictionPolicy&gt;</tspan></text><line x1="1275" y1="520" x2="1275" y2="770" stroke="#868e96" stroke-width="2"/><line x1="1210" y1="525" x2="1275" y2="525" stroke="#868e96" stroke-width="2"/><line x1="732" y1="715" x2="732" y2="770" stroke="#868e96" stroke-width="2"/><line x1="1067" y1="715" x2="1067" y2="770" stroke="#868e96" stroke-width="2"/><line x1="732" y1="770" x2="1275" y2="770" stroke="#868e96" stroke-width="2"/><line x1="1275" y1="555" x2="1320" y2="555" stroke="#495057" stroke-width="2" marker-end="url(#arrow)"/><rect x="1320" y="510" width="160" height="90" rx="10" fill="#f1f3f5" stroke="#495057" stroke-width="2"/><text font-family="Consolas, Microsoft YaHei, sans-serif" font-size="13" fill="#495057" text-anchor="middle"><tspan x="1400.0" y="551.8">EntryPtr</tspan><tspan x="1400.0" y="568.0">shared_ptr&lt;Entry&gt;</tspan></text><line x1="1480" y1="555" x2="1510" y2="555" stroke="#495057" stroke-width="2" marker-end="url(#arrow)"/><rect x="1510" y="245" width="320" height="420" rx="10" fill="#f1f3f5" stroke="#495057" stroke-width="2"/><text font-family="Consolas, Microsoft YaHei, sans-serif" font-size="18" fill="#495057" text-anchor="middle"><tspan x="1670.0" y="461.8"></tspan></text><text font-family="Consolas, Microsoft YaHei, sans-serif" font-size="23" fill="#495057" text-anchor="middle"><tspan x="1670.0" y="293.8">Entry</tspan></text><line x1="1540" y1="320" x2="1800" y2="320" stroke="#495057" stroke-width="2"/><text font-family="Consolas, Microsoft YaHei, sans-serif" font-size="16" fill="#495057" text-anchor="start"><tspan x="1550.0" y="366.0">key : BlockId</tspan><tspan x="1550.0" y="386.0">shard : uint32_t</tspan><tspan x="1550.0" y="406.0">size : size_t</tspan><tspan x="1550.0" y="426.0">buffer : Buffer</tspan></text><line x1="1540" y1="455" x2="1800" y2="455" stroke="#adb5bd" stroke-width="2"/><text font-family="Consolas, Microsoft YaHei, sans-serif" font-size="15" fill="#495057" text-anchor="start"><tspan x="1550.0" y="506.2">lock : Spinlock</tspan><tspan x="1550.0" y="525.0">status · refCnt · leaseTimeout</tspan></text><line x1="1540" y1="570" x2="1800" y2="570" stroke="#adb5bd" stroke-width="2"/><text font-family="Consolas, Microsoft YaHei, sans-serif" font-size="15" fill="#495057" text-anchor="start"><tspan x="1550.0" y="616.6">lifeTimeout · position</tspan></text><rect x="60" y="790" width="360" height="230" rx="10" fill="#fff4e6" stroke="#e67700" stroke-width="2"/><text font-family="Consolas, Microsoft YaHei, sans-serif" font-size="18" fill="#e67700" text-anchor="middle"><tspan x="240.0" y="911.8"></tspan></text><text font-family="Consolas, Microsoft YaHei, sans-serif" font-size="22" fill="#e67700" text-anchor="middle"><tspan x="240.0" y="838.2">BufferManager</tspan></text><line x1="90" y1="865" x2="390" y2="865" stroke="#e67700" stroke-width="2"/><text font-family="Consolas, Microsoft YaHei, sans-serif" font-size="14" fill="#495057" text-anchor="start"><tspan x="100.0" y="919.0">pools_ : map&lt;size,</tspan><tspan x="100.0" y="936.5">  unique_ptr&lt;BufferPool&gt;&gt;</tspan><tspan x="100.0" y="954.0">memoryRegions_</tspan><tspan x="100.0" y="971.5">Allocate(size) / Free(size, slot)</tspan></text><line x1="240" y1="570" x2="240" y2="790" stroke="#495057" stroke-width="2" marker-end="url(#arrow)"/><text font-family="Consolas, Microsoft YaHei, sans-serif" font-size="14" fill="#495057" text-anchor="middle"><tspan x="240.0" y="665.2">bufferManager_ (reference)</tspan></text><rect x="1280" y="815" width="550" height="205" rx="10" fill="none" stroke="#e67700" stroke-width="2" stroke-dasharray="9 7"/><text font-family="Consolas, Microsoft YaHei, sans-serif" font-size="18" fill="#e67700" text-anchor="middle"><tspan x="1555.0" y="924.2"></tspan></text><text font-family="Consolas, Microsoft YaHei, sans-serif" font-size="20" fill="#e67700" text-anchor="start"><tspan x="1310.0" y="857.5">BufferPool(size) · Host DRAM</tspan></text><rect x="1320" y="900" width="95" height="70" rx="10" fill="#fff4e6" stroke="#e67700" stroke-width="2"/><text font-family="Consolas, Microsoft YaHei, sans-serif" font-size="14" fill="#e67700" text-anchor="middle"><tspan x="1367.5" y="940.2">slot 0</tspan></text><rect x="1440" y="900" width="95" height="70" rx="10" fill="#fff4e6" stroke="#e67700" stroke-width="2"/><text font-family="Consolas, Microsoft YaHei, sans-serif" font-size="14" fill="#e67700" text-anchor="middle"><tspan x="1487.5" y="940.2">slot 1</tspan></text><rect x="1560" y="900" width="95" height="70" rx="10" fill="#f1f3f5" stroke="#495057" stroke-width="2"/><text font-family="Consolas, Microsoft YaHei, sans-serif" font-size="14" fill="#495057" text-anchor="middle"><tspan x="1607.5" y="940.2">···</tspan></text><rect x="1680" y="900" width="95" height="70" rx="10" fill="#fff4e6" stroke="#e67700" stroke-width="2"/><text font-family="Consolas, Microsoft YaHei, sans-serif" font-size="14" fill="#e67700" text-anchor="middle"><tspan x="1727.5" y="940.2">slot n</tspan></text><line x1="420" y1="920" x2="1280" y2="920" stroke="#495057" stroke-width="2" marker-end="url(#arrow)"/><text font-family="Consolas, Microsoft YaHei, sans-serif" font-size="14" fill="#495057" text-anchor="middle"><tspan x="850.0" y="905.2">pools_[size] (unique_ptr)</tspan></text><line x1="1670" y1="665" x2="1670" y2="815" stroke="#495057" stroke-width="2" marker-end="url(#arrow)"/><text font-family="Consolas, Microsoft YaHei, sans-serif" font-size="14" fill="#495057" text-anchor="middle"><tspan x="1670.0" y="725.2">buffer.addr / slot / length</tspan></text></svg>