<svg xmlns="http://www.w3.org/2000/svg" width="1500" height="820" viewBox="0 0 1500 820"><defs><marker id="arrow" markerWidth="10" markerHeight="10" refX="8" refY="3" orient="auto" markerUnits="strokeWidth"><path d="M0,0 L0,6 L9,3 z" fill="#495057"/></marker></defs><rect width="100%" height="100%" fill="#ffffff"/><text font-family="Consolas, Microsoft YaHei, sans-serif" font-size="26" fill="#212529" text-anchor="middle"><tspan x="740.0" y="47.5">控制请求、数据传输与响应回写时序</tspan></text><rect x="10" y="90" width="220" height="65" rx="10" fill="#ebfbee" stroke="#2b8a3e" stroke-width="2"/><text font-family="Consolas, Microsoft YaHei, sans-serif" font-size="17" fill="#2b8a3e" text-anchor="middle"><tspan x="120.0" y="128.9">DramStore</tspan></text><line x1="120" y1="155" x2="120" y2="770" stroke="#868e96" stroke-width="2" stroke-dasharray="9 7"/><rect x="320" y="90" width="220" height="65" rx="10" fill="#e7f5ff" stroke="#1971c2" stroke-width="2"/><text font-family="Consolas, Microsoft YaHei, sans-serif" font-size="17" fill="#1971c2" text-anchor="middle"><tspan x="430.0" y="128.9">TcpMessageChannel</tspan></text><line x1="430" y1="155" x2="430" y2="770" stroke="#868e96" stroke-width="2" stroke-dasharray="9 7"/><rect x="630" y="90" width="220" height="65" rx="10" fill="#e7f5ff" stroke="#1971c2" stroke-width="2"/><text font-family="Consolas, Microsoft YaHei, sans-serif" font-size="17" fill="#1971c2" text-anchor="middle"><tspan x="740.0" y="128.9">TaskWorker</tspan></text><line x1="740" y1="155" x2="740" y2="770" stroke="#868e96" stroke-width="2" stroke-dasharray="9 7"/><rect x="940" y="90" width="220" height="65" rx="10" fill="#e7f5ff" stroke="#1971c2" stroke-width="2"/><text font-family="Consolas, Microsoft YaHei, sans-serif" font-size="17" fill="#1971c2" text-anchor="middle"><tspan x="1050.0" y="128.9">TransportManager</tspan></text><line x1="1050" y1="155" x2="1050" y2="770" stroke="#868e96" stroke-width="2" stroke-dasharray="9 7"/><rect x="1250" y="90" width="220" height="65" rx="10" fill="#e7f5ff" stroke="#1971c2" stroke-width="2"/><text font-family="Consolas, Microsoft YaHei, sans-serif" font-size="17" fill="#1971c2" text-anchor="middle"><tspan x="1360.0" y="128.9">CompletionPoller</tspan></text><line x1="1360" y1="155" x2="1360" y2="770" stroke="#868e96" stroke-width="2" stroke-dasharray="9 7"/><line x1="120" y1="220" x2="430" y2="220" stroke="#495057" stroke-width="2" marker-end="url(#arrow)"/><text font-family="Consolas, Microsoft YaHei, sans-serif" font-size="14" fill="#495057" text-anchor="middle"><tspan x="275.0" y="205.2">Send Request（控制面）</tspan></text><line x1="430" y1="290" x2="740" y2="290" stroke="#495057" stroke-width="2" marker-end="url(#arrow)"/><text font-family="Consolas, Microsoft YaHei, sans-serif" font-size="14" fill="#495057" text-anchor="middle"><tspan x="585.0" y="275.2">RequestTaskPtr</tspan></text><line x1="740" y1="370" x2="1050" y2="370" stroke="#495057" stroke-width="2" marker-end="url(#arrow)"/><text font-family="Consolas, Microsoft YaHei, sans-serif" font-size="14" fill="#495057" text-anchor="middle"><tspan x="895.0" y="355.2">ExecuteAsync(Operation)</tspan></text><line x1="1050" y1="440" x2="120" y2="440" stroke="#495057" stroke-width="2" marker-end="url(#arrow)"/><text font-family="Consolas, Microsoft YaHei, sans-serif" font-size="14" fill="#495057" text-anchor="middle"><tspan x="585.0" y="425.2">Dump Read / Load Write（数据面）</tspan></text><line x1="1050" y1="510" x2="1360" y2="510" stroke="#495057" stroke-width="2" marker-end="url(#arrow)"/><text font-family="Consolas, Microsoft YaHei, sans-serif" font-size="14" fill="#495057" text-anchor="middle"><tspan x="1205.0" y="495.2">TransferHandle</tspan></text><line x1="1360" y1="585" x2="1050" y2="585" stroke="#495057" stroke-width="2" marker-end="url(#arrow)"/><text font-family="Consolas, Microsoft YaHei, sans-serif" font-size="14" fill="#495057" text-anchor="middle"><tspan x="1205.0" y="570.2">GetStatus(handle)</tspan></text><line x1="1360" y1="660" x2="1050" y2="660" stroke="#495057" stroke-width="2" marker-end="url(#arrow)"/><text font-family="Consolas, Microsoft YaHei, sans-serif" font-size="14" fill="#495057" text-anchor="middle"><tspan x="1205.0" y="645.2">ExecuteAsync(response Write)</tspan></text><line x1="1050" y1="725" x2="120" y2="725" stroke="#495057" stroke-width="2" marker-end="url(#arrow)"/><text font-family="Consolas, Microsoft YaHei, sans-serif" font-size="14" fill="#495057" text-anchor="middle"><tspan x="585.0" y="710.2">ResponseStatus + packed results</tspan></text></svg>