<svg xmlns="http://www.w3.org/2000/svg" width="2180" height="955" viewBox="0 0 2180 955"><defs><marker id="arrow" markerWidth="10" markerHeight="10" refX="8" refY="3" orient="auto" markerUnits="strokeWidth"><path d="M0,0 L0,6 L9,3 z" fill="#495057"/></marker></defs><rect width="100%" height="100%" fill="#ffffff"/><text font-family="Consolas, Microsoft YaHei, sans-serif" font-size="28" fill="#212529" text-anchor="middle"><tspan x="1090.0" y="55.0">CompletionRecord.stage 状态转换</tspan></text><rect x="145" y="95" width="340" height="110" rx="10" fill="#e7f5ff" stroke="#1971c2" stroke-width="2"/><text font-family="Consolas, Microsoft YaHei, sans-serif" font-size="15" fill="#1971c2" text-anchor="middle"><tspan x="315.0" y="136.9">TaskWorker</tspan><tspan x="315.0" y="155.6">Dump/Load 已提交数据 transfer 任务</tspan><tspan x="315.0" y="174.4">stage = PollDataTransfer</tspan></text><rect x="785" y="95" width="340" height="110" rx="10" fill="#f3f0ff" stroke="#7048e8" stroke-width="2"/><text font-family="Consolas, Microsoft YaHei, sans-serif" font-size="15" fill="#7048e8" text-anchor="middle"><tspan x="955.0" y="136.9">TaskWorker</tspan><tspan x="955.0" y="155.6">无数据 transfer 任务</tspan><tspan x="955.0" y="174.4">stage = SubmitResponse</tspan></text><rect x="45" y="235" width="2090" height="680" rx="10" fill="none" stroke="#495057" stroke-width="2" stroke-dasharray="9 7"/><text font-family="Consolas, Microsoft YaHei, sans-serif" font-size="18" fill="#495057" text-anchor="middle"><tspan x="1090.0" y="581.8"></tspan></text><text font-family="Consolas, Microsoft YaHei, sans-serif" font-size="19" fill="#495057" text-anchor="start"><tspan x="75.0" y="274.1">pending_ : deque&lt;CompletionRecord&gt;</tspan></text><rect x="100" y="345" width="430" height="270" rx="10" fill="#e7f5ff" stroke="#1971c2" stroke-width="2"/><ellipse cx="148.0" cy="389.0" rx="26.0" ry="26.0" fill="#1971c2" stroke="#1971c2" stroke-width="2"/><text font-family="Consolas, Microsoft YaHei, sans-serif" font-size="21" fill="#ffffff" text-anchor="middle"><tspan x="148.0" y="396.9">1</tspan></text><text font-family="Consolas, Microsoft YaHei, sans-serif" font-size="22" fill="#1971c2" text-anchor="start"><tspan x="192.0" y="392.2">PollDataTransfer</tspan></text><text font-family="Consolas, Microsoft YaHei, sans-serif" font-size="14" fill="#495057" text-anchor="start"><tspan x="192.0" y="423.2">PollDataTransfer(record)</tspan></text><line x1="124" y1="447" x2="506" y2="447" stroke="#1971c2" stroke-width="2"/><text font-family="Consolas, Microsoft YaHei, sans-serif" font-size="15" fill="#343a40" text-anchor="start"><tspan x="136.0" y="499.5">GetStatus(data_handle)</tspan><tspan x="136.0" y="518.2">Waiting：保留在 pending_</tspan><tspan x="136.0" y="537.0">终态：SettleDataTransfer()</tspan><tspan x="136.0" y="555.8">发布/删除 Dump，释放 Load 引用</tspan></text><rect x="740" y="345" width="430" height="270" rx="10" fill="#f3f0ff" stroke="#7048e8" stroke-width="2"/><ellipse cx="788.0" cy="389.0" rx="26.0" ry="26.0" fill="#7048e8" stroke="#7048e8" stroke-width="2"/><text font-family="Consolas, Microsoft YaHei, sans-serif" font-size="21" fill="#ffffff" text-anchor="middle"><tspan x="788.0" y="396.9">2</tspan></text><text font-family="Consolas, Microsoft YaHei, sans-serif" font-size="22" fill="#7048e8" text-anchor="start"><tspan x="832.0" y="392.2">SubmitResponse</tspan></text><text font-family="Consolas, Microsoft YaHei, sans-serif" font-size="14" fill="#495057" text-anchor="start"><tspan x="832.0" y="423.2">SubmitResponse(record)</tspan></text><line x1="764" y1="447" x2="1146" y2="447" stroke="#7048e8" stroke-width="2"/><text font-family="Consolas, Microsoft YaHei, sans-serif" font-size="15" fill="#343a40" text-anchor="start"><tspan x="776.0" y="508.9">flagBufferPool_.Allocate()</tspan><tspan x="776.0" y="527.6">PackResponse(results)</tspan><tspan x="776.0" y="546.4">ExecuteAsync(response Write)</tspan></text><rect x="1380" y="345" width="430" height="270" rx="10" fill="#fff4e6" stroke="#e67700" stroke-width="2"/><ellipse cx="1428.0" cy="389.0" rx="26.0" ry="26.0" fill="#e67700" stroke="#e67700" stroke-width="2"/><text font-family="Consolas, Microsoft YaHei, sans-serif" font-size="21" fill="#ffffff" text-anchor="middle"><tspan x="1428.0" y="396.9">3</tspan></text><text font-family="Consolas, Microsoft YaHei, sans-serif" font-size="22" fill="#e67700" text-anchor="start"><tspan x="1472.0" y="392.2">PollResponseTransfer</tspan></text><text font-family="Consolas, Microsoft YaHei, sans-serif" font-size="14" fill="#495057" text-anchor="start"><tspan x="1472.0" y="423.2">PollResponseTransfer(record)</tspan></text><line x1="1404" y1="447" x2="1786" y2="447" stroke="#e67700" stroke-width="2"/><text font-family="Consolas, Microsoft YaHei, sans-serif" font-size="15" fill="#343a40" text-anchor="start"><tspan x="1416.0" y="499.5">GetStatus(response_handle)</tspan><tspan x="1416.0" y="518.2"></tspan><tspan x="1416.0" y="537.0">Waiting：保留 local_resp_slot</tspan><tspan x="1416.0" y="555.8">终态：释放响应 Slot</tspan></text><line x1="315" y1="205" x2="315" y2="345" stroke="#1971c2" stroke-width="2" marker-end="url(#arrow)"/><line x1="955" y1="205" x2="955" y2="345" stroke="#7048e8" stroke-width="2" marker-end="url(#arrow)"/><line x1="530" y1="480" x2="740" y2="480" stroke="#1971c2" stroke-width="2" marker-end="url(#arrow)"/><text font-family="Consolas, Microsoft YaHei, sans-serif" font-size="13" fill="#1971c2" text-anchor="middle"><tspan x="635.0" y="427.8">data_handle 到达终态</tspan><tspan x="635.0" y="444.0">SettleDataTransfer()</tspan></text><rect x="540" y="510" width="190" height="58" rx="10" fill="#f3f0ff" stroke="#7048e8" stroke-width="2"/><text font-family="Consolas, Microsoft YaHei, sans-serif" font-size="12" fill="#7048e8" text-anchor="middle"><tspan x="635.0" y="537.0">stage =</tspan><tspan x="635.0" y="552.0">SubmitResponse</tspan></text><line x1="1170" y1="480" x2="1380" y2="480" stroke="#7048e8" stroke-width="2" marker-end="url(#arrow)"/><text font-family="Consolas, Microsoft YaHei, sans-serif" font-size="13" fill="#7048e8" text-anchor="middle"><tspan x="1275.0" y="427.8">响应 Write 提交成功</tspan><tspan x="1275.0" y="444.0">获得 response_handle</tspan></text><rect x="1180" y="510" width="190" height="58" rx="10" fill="#fff4e6" stroke="#e67700" stroke-width="2"/><text font-family="Consolas, Microsoft YaHei, sans-serif" font-size="12" fill="#e67700" text-anchor="middle"><tspan x="1275.0" y="537.0">stage =</tspan><tspan x="1275.0" y="552.0">PollResponseTransfer</tspan></text><polyline points="220,615 220,715 410,715 410,615" fill="none" stroke="#1971c2" stroke-width="2" marker-end="url(#arrow)"/><text font-family="Consolas, Microsoft YaHei, sans-serif" font-size="13" fill="#1971c2" text-anchor="middle"><tspan x="315.0" y="736.8">Waiting</tspan><tspan x="315.0" y="753.0">下轮继续轮询</tspan></text><polyline points="845,615 845,715 1010,715 1010,615" fill="none" stroke="#7048e8" stroke-width="2" marker-end="url(#arrow)"/><text font-family="Consolas, Microsoft YaHei, sans-serif" font-size="13" fill="#7048e8" text-anchor="middle"><tspan x="927.5" y="736.8">flagBufferPool_ NoSpace</tspan><tspan x="927.5" y="753.0">保留记录，下轮重试</tspan></text><polyline points="1500,615 1500,715 1690,715 1690,615" fill="none" stroke="#e67700" stroke-width="2" marker-end="url(#arrow)"/><text font-family="Consolas, Microsoft YaHei, sans-serif" font-size="13" fill="#e67700" text-anchor="middle"><tspan x="1595.0" y="736.8">Waiting</tspan><tspan x="1595.0" y="753.0">下轮继续轮询</tspan></text><line x1="1080" y1="615" x2="1080" y2="790" stroke="#c92a2a" stroke-width="2" marker-end="url(#arrow)"/><rect x="905" y="790" width="350" height="85" rx="10" fill="#fff5f5" stroke="#c92a2a" stroke-width="2"/><text font-family="Consolas, Microsoft YaHei, sans-serif" font-size="14" fill="#c92a2a" text-anchor="middle"><tspan x="1080.0" y="829.0">响应提交失败</tspan><tspan x="1080.0" y="846.5">释放已有资源并从 pending_ 移除</tspan></text><line x1="1810" y1="480" x2="2070" y2="480" stroke="#e67700" stroke-width="2" marker-end="url(#arrow)"/><ellipse cx="2095.0" cy="480.0" rx="25.0" ry="25.0" fill="#495057" stroke="#495057" stroke-width="2"/><text font-family="Consolas, Microsoft YaHei, sans-serif" font-size="12" fill="#e67700" text-anchor="middle"><tspan x="1947.5" y="416.0">response_handle 到达终态</tspan><tspan x="1947.5" y="431.0">ReleaseResponseBuffer()</tspan></text><text font-family="Consolas, Microsoft YaHei, sans-serif" font-size="13" fill="#495057" text-anchor="middle"><tspan x="1987.5" y="540.9">从 pending_ 移除</tspan></text></svg>