<svg xmlns="http://www.w3.org/2000/svg" width="2180" height="1055" viewBox="0 0 2180 1055"><defs><marker id="arrow" markerWidth="10" markerHeight="10" refX="8" refY="3" orient="auto" markerUnits="strokeWidth"><path d="M0,0 L0,6 L9,3 z" fill="#495057"/></marker></defs><rect width="100%" height="100%" fill="#ffffff"/><text font-family="Consolas, Microsoft YaHei, sans-serif" font-size="28" fill="#212529" text-anchor="middle"><tspan x="1090.0" y="55.0">CompletionRecord.stage 状态转换</tspan></text><rect x="70" y="90" width="300" height="130" rx="10" fill="#e7f5ff" stroke="#1971c2" stroke-width="2"/><text font-family="Consolas, Microsoft YaHei, sans-serif" font-size="14" fill="#1971c2" text-anchor="middle"><tspan x="220.0" y="134.0">TaskWorker</tspan><tspan x="220.0" y="151.5">创建 CompletionRecord</tspan><tspan x="220.0" y="169.0">stage = PollDataTransfer</tspan><tspan x="220.0" y="186.5">或 SubmitResponse</tspan></text><rect x="450" y="80" width="400" height="150" rx="10" fill="none" stroke="#7048e8" stroke-width="2" stroke-dasharray="9 7"/><text font-family="Consolas, Microsoft YaHei, sans-serif" font-size="18" fill="#7048e8" text-anchor="middle"><tspan x="650.0" y="161.8"></tspan></text><text font-family="Consolas, Microsoft YaHei, sans-serif" font-size="15" fill="#7048e8" text-anchor="middle"><tspan x="650.0" y="110.6">completionQueue_ · CompletionQueue</tspan></text><rect x="496.0" y="128" width="68" height="55" rx="10" fill="#f3f0ff" stroke="#7048e8" stroke-width="2"/><text font-family="Consolas, Microsoft YaHei, sans-serif" font-size="11" fill="#7048e8" text-anchor="middle"><tspan x="530.0" y="159.6">C0</tspan></text><rect x="576.0" y="128" width="68" height="55" rx="10" fill="#f3f0ff" stroke="#7048e8" stroke-width="2"/><text font-family="Consolas, Microsoft YaHei, sans-serif" font-size="11" fill="#7048e8" text-anchor="middle"><tspan x="610.0" y="159.6">C1</tspan></text><rect x="656.0" y="128" width="68" height="55" rx="10" fill="#f3f0ff" stroke="#7048e8" stroke-width="2"/><text font-family="Consolas, Microsoft YaHei, sans-serif" font-size="11" fill="#7048e8" text-anchor="middle"><tspan x="690.0" y="159.6">C2</tspan></text><rect x="736.0" y="128" width="68" height="55" rx="10" fill="#f1f3f5" stroke="#495057" stroke-width="2"/><text font-family="Consolas, Microsoft YaHei, sans-serif" font-size="11" fill="#495057" text-anchor="middle"><tspan x="770.0" y="159.6">empty</tspan></text><text font-family="Consolas, Microsoft YaHei, sans-serif" font-size="11" fill="#495057" text-anchor="middle"><tspan x="650.0" y="209.6">SPSC · TaskWorker → CompletionPoller</tspan></text><rect x="940" y="100" width="300" height="110" rx="10" fill="#fff4e6" stroke="#e67700" stroke-width="2"/><text font-family="Consolas, Microsoft YaHei, sans-serif" font-size="16" fill="#e67700" text-anchor="middle"><tspan x="1090.0" y="151.0">CompletionPoller</tspan><tspan x="1090.0" y="171.0">FillPendingWindow()</tspan></text><rect x="1330" y="80" width="480" height="150" rx="10" fill="none" stroke="#e67700" stroke-width="2" stroke-dasharray="9 7"/><text font-family="Consolas, Microsoft YaHei, sans-serif" font-size="18" fill="#e67700" text-anchor="middle"><tspan x="1570.0" y="161.8"></tspan></text><text font-family="Consolas, Microsoft YaHei, sans-serif" font-size="15" fill="#e67700" text-anchor="middle"><tspan x="1570.0" y="110.6">pending_ · deque&lt;CompletionRecord&gt;</tspan></text><rect x="1416.0" y="128" width="68" height="55" rx="10" fill="#fff4e6" stroke="#e67700" stroke-width="2"/><text font-family="Consolas, Microsoft YaHei, sans-serif" font-size="11" fill="#e67700" text-anchor="middle"><tspan x="1450.0" y="159.6">P0</tspan></text><rect x="1496.0" y="128" width="68" height="55" rx="10" fill="#fff4e6" stroke="#e67700" stroke-width="2"/><text font-family="Consolas, Microsoft YaHei, sans-serif" font-size="11" fill="#e67700" text-anchor="middle"><tspan x="1530.0" y="159.6">P1</tspan></text><rect x="1576.0" y="128" width="68" height="55" rx="10" fill="#fff4e6" stroke="#e67700" stroke-width="2"/><text font-family="Consolas, Microsoft YaHei, sans-serif" font-size="11" fill="#e67700" text-anchor="middle"><tspan x="1610.0" y="159.6">P2</tspan></text><rect x="1656.0" y="128" width="68" height="55" rx="10" fill="#f1f3f5" stroke="#495057" stroke-width="2"/><text font-family="Consolas, Microsoft YaHei, sans-serif" font-size="11" fill="#495057" text-anchor="middle"><tspan x="1690.0" y="159.6">empty</tspan></text><text font-family="Consolas, Microsoft YaHei, sans-serif" font-size="11" fill="#495057" text-anchor="middle"><tspan x="1570.0" y="209.6">仅由 CompletionPoller 线程访问</tspan></text><line x1="370" y1="155" x2="450" y2="155" stroke="#7048e8" stroke-width="2" marker-end="url(#arrow)"/><text font-family="Consolas, Microsoft YaHei, sans-serif" font-size="14" fill="#7048e8" text-anchor="middle"><tspan x="410.0" y="140.2">Push</tspan></text><line x1="850" y1="155" x2="940" y2="155" stroke="#7048e8" stroke-width="2" marker-end="url(#arrow)"/><text font-family="Consolas, Microsoft YaHei, sans-serif" font-size="14" fill="#7048e8" text-anchor="middle"><tspan x="895.0" y="140.2">TryPop</tspan></text><line x1="1240" y1="155" x2="1330" y2="155" stroke="#e67700" stroke-width="2" marker-end="url(#arrow)"/><text font-family="Consolas, Microsoft YaHei, sans-serif" font-size="14" fill="#e67700" text-anchor="middle"><tspan x="1285.0" y="140.2">emplace_back</tspan></text><rect x="45" y="290" width="2090" height="725" rx="10" fill="none" stroke="#495057" stroke-width="2" stroke-dasharray="9 7"/><text font-family="Consolas, Microsoft YaHei, sans-serif" font-size="18" fill="#495057" text-anchor="middle"><tspan x="1090.0" y="659.2"></tspan></text><text font-family="Consolas, Microsoft YaHei, sans-serif" font-size="19" fill="#495057" text-anchor="start"><tspan x="75.0" y="329.1">PollPendingCompletions()：推进 pending_ 中的 CompletionRecord</tspan></text><line x1="1570" y1="230" x2="1570" y2="290" stroke="#e67700" stroke-width="2" marker-end="url(#arrow)"/><rect x="100" y="420" width="430" height="270" rx="10" fill="#e7f5ff" stroke="#1971c2" stroke-width="2"/><ellipse cx="148.0" cy="464.0" rx="26.0" ry="26.0" fill="#1971c2" stroke="#1971c2" stroke-width="2"/><text font-family="Consolas, Microsoft YaHei, sans-serif" font-size="21" fill="#ffffff" text-anchor="middle"><tspan x="148.0" y="471.9">1</tspan></text><text font-family="Consolas, Microsoft YaHei, sans-serif" font-size="22" fill="#1971c2" text-anchor="start"><tspan x="192.0" y="467.2">PollDataTransfer</tspan></text><text font-family="Consolas, Microsoft YaHei, sans-serif" font-size="14" fill="#495057" text-anchor="start"><tspan x="192.0" y="498.2">PollDataTransfer(record)</tspan></text><line x1="124" y1="522" x2="506" y2="522" stroke="#1971c2" stroke-width="2"/><text font-family="Consolas, Microsoft YaHei, sans-serif" font-size="15" fill="#343a40" text-anchor="start"><tspan x="136.0" y="574.5">GetStatus(data_handle)</tspan><tspan x="136.0" y="593.2">Waiting：保留在 pending_</tspan><tspan x="136.0" y="612.0">终态：SettleDataTransfer()</tspan><tspan x="136.0" y="630.8">发布/删除 Dump，释放 Load 引用</tspan></text><rect x="740" y="420" width="430" height="270" rx="10" fill="#f3f0ff" stroke="#7048e8" stroke-width="2"/><ellipse cx="788.0" cy="464.0" rx="26.0" ry="26.0" fill="#7048e8" stroke="#7048e8" stroke-width="2"/><text font-family="Consolas, Microsoft YaHei, sans-serif" font-size="21" fill="#ffffff" text-anchor="middle"><tspan x="788.0" y="471.9">2</tspan></text><text font-family="Consolas, Microsoft YaHei, sans-serif" font-size="22" fill="#7048e8" text-anchor="start"><tspan x="832.0" y="467.2">SubmitResponse</tspan></text><text font-family="Consolas, Microsoft YaHei, sans-serif" font-size="14" fill="#495057" text-anchor="start"><tspan x="832.0" y="498.2">SubmitResponse(record)</tspan></text><line x1="764" y1="522" x2="1146" y2="522" stroke="#7048e8" stroke-width="2"/><text font-family="Consolas, Microsoft YaHei, sans-serif" font-size="15" fill="#343a40" text-anchor="start"><tspan x="776.0" y="583.9">flagBufferPool_.Allocate()</tspan><tspan x="776.0" y="602.6">PackResponse(results)</tspan><tspan x="776.0" y="621.4">ExecuteAsync(response Write)</tspan></text><rect x="1380" y="420" width="430" height="270" rx="10" fill="#fff4e6" stroke="#e67700" stroke-width="2"/><ellipse cx="1428.0" cy="464.0" rx="26.0" ry="26.0" fill="#e67700" stroke="#e67700" stroke-width="2"/><text font-family="Consolas, Microsoft YaHei, sans-serif" font-size="21" fill="#ffffff" text-anchor="middle"><tspan x="1428.0" y="471.9">3</tspan></text><text font-family="Consolas, Microsoft YaHei, sans-serif" font-size="22" fill="#e67700" text-anchor="start"><tspan x="1472.0" y="467.2">PollResponseTransfer</tspan></text><text font-family="Consolas, Microsoft YaHei, sans-serif" font-size="14" fill="#495057" text-anchor="start"><tspan x="1472.0" y="498.2">PollResponseTransfer(record)</tspan></text><line x1="1404" y1="522" x2="1786" y2="522" stroke="#e67700" stroke-width="2"/><text font-family="Consolas, Microsoft YaHei, sans-serif" font-size="15" fill="#343a40" text-anchor="start"><tspan x="1416.0" y="574.5">GetStatus(response_handle)</tspan><tspan x="1416.0" y="593.2"></tspan><tspan x="1416.0" y="612.0">Waiting：保留 local_resp_slot</tspan><tspan x="1416.0" y="630.8">终态：释放响应 Slot</tspan></text><rect x="200" y="345" width="230" height="55" rx="10" fill="#e7f5ff" stroke="#1971c2" stroke-width="2"/><text font-family="Consolas, Microsoft YaHei, sans-serif" font-size="11" fill="#1971c2" text-anchor="middle"><tspan x="315.0" y="370.8">初始 stage =</tspan><tspan x="315.0" y="384.5">PollDataTransfer</tspan></text><line x1="315" y1="400" x2="315" y2="420" stroke="#1971c2" stroke-width="2" marker-end="url(#arrow)"/><rect x="840" y="345" width="230" height="55" rx="10" fill="#f3f0ff" stroke="#7048e8" stroke-width="2"/><text font-family="Consolas, Microsoft YaHei, sans-serif" font-size="11" fill="#7048e8" text-anchor="middle"><tspan x="955.0" y="370.8">初始 stage =</tspan><tspan x="955.0" y="384.5">SubmitResponse</tspan></text><line x1="955" y1="400" x2="955" y2="420" stroke="#7048e8" stroke-width="2" marker-end="url(#arrow)"/><line x1="530" y1="555" x2="740" y2="555" stroke="#1971c2" stroke-width="2" marker-end="url(#arrow)"/><text font-family="Consolas, Microsoft YaHei, sans-serif" font-size="13" fill="#1971c2" text-anchor="middle"><tspan x="635.0" y="502.8">data_handle 到达终态</tspan><tspan x="635.0" y="519.0">SettleDataTransfer()</tspan></text><rect x="540" y="585" width="190" height="58" rx="10" fill="#f3f0ff" stroke="#7048e8" stroke-width="2"/><text font-family="Consolas, Microsoft YaHei, sans-serif" font-size="12" fill="#7048e8" text-anchor="middle"><tspan x="635.0" y="612.0">stage =</tspan><tspan x="635.0" y="627.0">SubmitResponse</tspan></text><line x1="1170" y1="555" x2="1380" y2="555" stroke="#7048e8" stroke-width="2" marker-end="url(#arrow)"/><text font-family="Consolas, Microsoft YaHei, sans-serif" font-size="13" fill="#7048e8" text-anchor="middle"><tspan x="1275.0" y="502.8">响应 Write 提交成功</tspan><tspan x="1275.0" y="519.0">获得 response_handle</tspan></text><rect x="1180" y="585" width="190" height="58" rx="10" fill="#fff4e6" stroke="#e67700" stroke-width="2"/><text font-family="Consolas, Microsoft YaHei, sans-serif" font-size="12" fill="#e67700" text-anchor="middle"><tspan x="1275.0" y="612.0">stage =</tspan><tspan x="1275.0" y="627.0">PollResponseTransfer</tspan></text><polyline points="220,690 220,790 410,790 410,690" fill="none" stroke="#1971c2" stroke-width="2" marker-end="url(#arrow)"/><text font-family="Consolas, Microsoft YaHei, sans-serif" font-size="13" fill="#1971c2" text-anchor="middle"><tspan x="315.0" y="811.8">Waiting</tspan><tspan x="315.0" y="828.0">下轮继续轮询</tspan></text><polyline points="845,690 845,790 1010,790 1010,690" fill="none" stroke="#7048e8" stroke-width="2" marker-end="url(#arrow)"/><text font-family="Consolas, Microsoft YaHei, sans-serif" font-size="13" fill="#7048e8" text-anchor="middle"><tspan x="927.5" y="811.8">flagBufferPool_ NoSpace</tspan><tspan x="927.5" y="828.0">保留记录，下轮重试</tspan></text><polyline points="1500,690 1500,790 1690,790 1690,690" fill="none" stroke="#e67700" stroke-width="2" marker-end="url(#arrow)"/><text font-family="Consolas, Microsoft YaHei, sans-serif" font-size="13" fill="#e67700" text-anchor="middle"><tspan x="1595.0" y="811.8">Waiting</tspan><tspan x="1595.0" y="828.0">下轮继续轮询</tspan></text><line x1="1080" y1="690" x2="1080" y2="865" stroke="#c92a2a" stroke-width="2" marker-end="url(#arrow)"/><rect x="905" y="865" width="350" height="85" rx="10" fill="#fff5f5" stroke="#c92a2a" stroke-width="2"/><text font-family="Consolas, Microsoft YaHei, sans-serif" font-size="14" fill="#c92a2a" text-anchor="middle"><tspan x="1080.0" y="904.0">响应提交失败</tspan><tspan x="1080.0" y="921.5">释放已有资源并从 pending_ 移除</tspan></text><line x1="1810" y1="555" x2="2070" y2="555" stroke="#e67700" stroke-width="2" marker-end="url(#arrow)"/><ellipse cx="2095.0" cy="555.0" rx="25.0" ry="25.0" fill="#495057" stroke="#495057" stroke-width="2"/><text font-family="Consolas, Microsoft YaHei, sans-serif" font-size="12" fill="#e67700" text-anchor="middle"><tspan x="1947.5" y="491.0">response_handle 到达终态</tspan><tspan x="1947.5" y="506.0">ReleaseResponseBuffer()</tspan></text><text font-family="Consolas, Microsoft YaHei, sans-serif" font-size="13" fill="#495057" text-anchor="middle"><tspan x="1987.5" y="615.9">从 pending_ 移除</tspan></text></svg>